{"title":"Love Happens TS XVID-IMAGiNE","uid":5133979,"size":1053798570,"categoryP":"video","categoryS":"movies","magnet":"?xt=urn:btih:6f63ba48881043272261f2ceca4e08d123eac2df&amp;dn=Love+Happens+TS+XVID-IMAGiNE&amp;tr=udp%3A%2F%2Ftracker.openbittorrent.com%3A80&amp;tr=udp%3A%2F%2Fopen.demonii.com%3A1337&amp;tr=udp%3A%2F%2Ftracker.coppersurfer.tk%3A6969&amp;tr=udp%3A%2F%2Fexodus.desync.com%3A6969","seeders":0,"leechers":1,"uploader":"poophead5","files":3,"time":1256340299,"description":"Love_Happens_TS_XVID-IMAGiNE.\n\n\n\n                      Another Fine Release Brought to you from - IMAGiNE                   \n                                               \n   \n********************************************************************************************************************                                \n                                 Love Happens TS XVID - IMAGiNE                                        \n********************************************************************************************************************\n\nRipper ...........: IMAGiNE                                  IMDB Rating.......:5.4/10                             \nVideo Codec.......: XVID                                     Release Date......:04/10/09\nAudio Codec.......:MP3                                       Theatre Date......:18/09/09\nAudio Bitrate.....:192                                       Runtime.......:1h 43mn\nSubtitles.........:NIL                                       Language..........:ENGLISH\nResolution...... 720 x 300                                   IMDb URL..........:http://www.imdb.com/title/tt0899106/\n\n\nDETAILS:\n\nVideo\nID                               : 0\nFormat                           : MPEG-4 Visual\nFormat profile                   : Streaming Video@L1\nFormat settings, BVOP            : Yes\nFormat settings, QPel            : No\nFormat settings, GMC             : No warppoints\nFormat settings, Matrix          : Custom\nMuxing mode                      : Packed bitstream\nCodec ID                         : XVID\nCodec ID/Hint                    : XviD\nDuration                         : 1h 43mn\nBit rate                         : 1 134 Kbps\nWidth                            : 720 pixels\nHeight                           : 300 pixels\nDisplay aspect ratio             : 2.400\nFrame rate                       : 25.000 fps\nResolution                       : 24 bits\nColorimetry                      : 4:2:0\nScan type                        : Progressive\nBits/(Pixel*Frame)               : 0.210\nStream size                      : 842 MiB (85%)\nWriting library                  : XviD 1.2.1 (UTC 2008-12-04)\n\nAudio\nID                               : 1\nFormat                           : MPEG Audio\nFormat version                   : Version 1\nFormat profile                   : Layer 3\nCodec ID                         : 55\nCodec ID/Hint                    : MP3\nDuration                         : 1h 43mn\nBit rate mode                    : Constant\nBit rate                         : 192 Kbps\nChannel(s)                       : 2 channels\nSampling rate                    : 48.0 KHz\nResolution                       : 16 bits\nStream size                      : 143 MiB (14%)\nAlignment                        : Split accross interleaves\nInterleave, duration             : 40 ms (1.00 video frame)\nInterleave, preload duration     : 500 ms\n\n\n\nNOTES:\n\nIMAGiNE bringing you another release.....\nThis time it's love happens......we used the russian source files for the video.\nThe video needed to be cropped differently throughout due to camera movement and resize...\nalso needed the usually contrast,colours,sharpness all sorting out.\nGot to say the video also contains a slight flicker/pluse aswell .....\nThe audio is our own Direct audio....Enjoy!\n\n\n","torrent":{"xt":"urn:btih:6f63ba48881043272261f2ceca4e08d123eac2df","amp;dn":"Love+Happens+TS+XVID-IMAGiNE","amp;tr":["udp%3A%2F%2Ftracker.openbittorrent.com%3A80","udp%3A%2F%2Fopen.demonii.com%3A1337","udp%3A%2F%2Ftracker.coppersurfer.tk%3A6969","udp%3A%2F%2Fexodus.desync.com%3A6969"],"infoHash":"6f63ba48881043272261f2ceca4e08d123eac2df","infoHashBuffer":{"type":"Buffer","data":[111,99,186,72,136,16,67,39,34,97,242,206,202,78,8,209,35,234,194,223]},"announce":[],"urlList":[]}}